<?xml version="1.0" encoding="utf-8"?>
<svg version="1.1" xmlns:xlink="http://www.w3.org/1999/xlink" width="30px" height="25px" xmlns="http://www.w3.org/2000/svg">
  <g transform="matrix(1 0 0 1 -240 -17 )">
    <path d="M 29.62890625 20.37109375  C 29.8763020833333 20.6184895833333  30 20.9114583333333  30 21.25  L 30 23.75  C 30 24.0885416666667  29.8763020833333 24.3815104166667  29.62890625 24.62890625  C 29.3815104166667 24.8763020833333  29.0885416666667 25  28.75 25  L 1.25 25  C 0.911458333333343 25  0.618489583333343 24.8763020833333  0.37109375 24.62890625  C 0.123697916666657 24.3815104166667  0 24.0885416666667  0 23.75  L 0 21.25  C 0 20.9114583333333  0.123697916666657 20.6184895833333  0.37109375 20.37109375  C 0.618489583333343 20.1236979166667  0.911458333333343 20  1.25 20  L 28.75 20  C 29.0885416666667 20  29.3815104166667 20.1236979166667  29.62890625 20.37109375  Z M 29.62890625 10.37109375  C 29.8763020833333 10.6184895833333  30 10.9114583333333  30 11.25  L 30 13.75  C 30 14.0885416666667  29.8763020833333 14.3815104166667  29.62890625 14.62890625  C 29.3815104166667 14.8763020833333  29.0885416666667 15  28.75 15  L 1.25 15  C 0.911458333333343 15  0.618489583333343 14.8763020833333  0.37109375 14.62890625  C 0.123697916666657 14.3815104166667  0 14.0885416666667  0 13.75  L 0 11.25  C 0 10.9114583333333  0.123697916666657 10.6184895833333  0.37109375 10.37109375  C 0.618489583333343 10.1236979166667  0.911458333333343 10  1.25 10  L 28.75 10  C 29.0885416666667 10  29.3815104166667 10.1236979166667  29.62890625 10.37109375  Z M 29.62890625 0.37109375  C 29.8763020833333 0.618489583333332  30 0.911458333333332  30 1.25  L 30 3.75  C 30 4.08854166666666  29.8763020833333 4.38151041666666  29.62890625 4.62890625  C 29.3815104166667 4.87630208333333  29.0885416666667 5  28.75 5  L 1.25 5  C 0.911458333333343 5  0.618489583333343 4.87630208333333  0.37109375 4.62890625  C 0.123697916666657 4.38151041666666  0 4.08854166666666  0 3.75  L 0 1.25  C 0 0.911458333333332  0.123697916666657 0.618489583333332  0.37109375 0.37109375  C 0.618489583333343 0.123697916666664  0.911458333333343 0  1.25 0  L 28.75 0  C 29.0885416666667 0  29.3815104166667 0.123697916666664  29.62890625 0.37109375  Z " fill-rule="nonzero" fill="#999999" stroke="none" transform="matrix(1 0 0 1 240 17 )" />
  </g>
</svg>