<?xml version="1.0" encoding="utf-8"?>
<svg version="1.1" xmlns:xlink="http://www.w3.org/1999/xlink" width="22px" height="19px" xmlns="http://www.w3.org/2000/svg">
  <g transform="matrix(1 0 0 1 -1205 -20 )">
    <path d="M 11 18.1517857142857  C 11.1410256410256 18.1517857142857  11.2115384615386 18.0952380952381  11.2115384615386 17.9821428571429  C 11.2115384615386 17.8690476190476  11.1410256410256 17.8125  11 17.8125  C 10.479967948718 17.8125  10.0326522435896 17.6622953869048  9.65805288461547 17.3618861607143  C 9.28345352564088 17.0614769345238  9.09615384615381 16.7027529761905  9.09615384615381 16.2857142857143  C 9.09615384615381 16.1726190476191  9.02564102564088 16.1160714285714  8.88461538461547 16.1160714285714  C 8.74358974358961 16.1160714285714  8.67307692307691 16.1726190476191  8.67307692307691 16.2857142857143  C 8.67307692307691 16.8017113095238  8.90004006410254 17.2417224702381  9.35396634615381 17.6057477678571  C 9.80789262820508 17.9697730654762  10.3565705128206 18.1517857142857  11 18.1517857142857  Z M 20.796875 13.9955357142857  C 21.1582532051284 14.3206845238095  21.5592948717949 14.6316964285714  22 14.9285714285714  C 22 15.2961309523809  21.832532051282 15.6142113095238  21.4975961538462 15.8828125  C 21.1626602564104 16.1514136904762  20.7660256410256 16.2857142857143  20.3076923076924 16.2857142857143  L 14.3846153846155 16.2857142857143  C 14.3846153846155 17.0349702380952  14.0540865384614 17.6746651785714  13.3930288461538 18.2047991071429  C 12.7319711538462 18.7349330357143  11.9342948717949 19  11 19  C 10.0657051282051 19  9.26802884615381 18.7349330357143  8.60697115384619 18.2047991071429  C 7.94591346153857 17.6746651785714  7.61538461538453 17.0349702380952  7.61538461538453 16.2857142857143  L 1.69230769230762 16.2857142857143  C 1.23397435897436 16.2857142857143  0.83733974358961 16.1514136904762  0.502403846153811 15.8828125  C 0.167467948718013 15.6142113095238  0 15.2961309523809  0 14.9285714285714  C 0.440705128205082 14.6316964285714  0.841746794871597 14.3206845238095  1.203125 13.9955357142857  C 1.5645032051284 13.6703869047619  1.93910256410254 13.248046875  2.32692307692309 12.728515625  C 2.71474358974365 12.208984375  3.04306891025635 11.6488095238095  3.31189903846143 11.0479910714286  C 3.58072916666652 10.4471726190476  3.80108173076928 9.71912202380953  3.97295673076928 8.86383928571428  C 4.14483173076928 8.00855654761905  4.23076923076928 7.08965773809523  4.23076923076928 6.10714285714286  C 4.23076923076928 5.03273809523809  4.74639423076928 4.03431919642857  5.77764423076928 3.11188616071428  C 6.80889423076928 2.189453125  8.16185897435912 1.62927827380952  9.83653846153857 1.43136160714286  C 9.76602564102564 1.29706101190476  9.73076923076928 1.15922619047619  9.73076923076928 1.01785714285714  C 9.73076923076928 0.735119047619048  9.85416666666652 0.494791666666668  10.1009615384614 0.296875  C 10.3477564102564 0.0989583333333321  10.6474358974358 0  11 0  C 11.3525641025642 0  11.6522435897436 0.0989583333333321  11.8990384615386 0.296875  C 12.1458333333335 0.494791666666668  12.2692307692307 0.735119047619048  12.2692307692307 1.01785714285714  C 12.2692307692307 1.15922619047619  12.2339743589744 1.29706101190476  12.1634615384614 1.43136160714286  C 13.8381410256409 1.62927827380952  15.1911057692307 2.189453125  16.2223557692307 3.11188616071428  C 17.2536057692307 4.03431919642857  17.7692307692307 5.03273809523809  17.7692307692307 6.10714285714286  C 17.7692307692307 7.08965773809523  17.8551682692307 8.00855654761905  18.0270432692307 8.86383928571428  C 18.1989182692307 9.71912202380953  18.4192708333335 10.4471726190476  18.6881009615386 11.0479910714286  C 18.9569310897436 11.6488095238095  19.2852564102564 12.208984375  19.6730769230769 12.728515625  C 20.0608974358975 13.248046875  20.4354967948716 13.6703869047619  20.796875 13.9955357142857  Z " fill-rule="nonzero" fill="#6633ff" stroke="none" transform="matrix(1 0 0 1 1205 20 )" />
  </g>
</svg>