<?xml version="1.0" encoding="utf-8"?>
<svg version="1.1" xmlns:xlink="http://www.w3.org/1999/xlink" width="11px" height="6px" xmlns="http://www.w3.org/2000/svg">
  <g transform="matrix(1 0 0 1 -195 -97 )">
    <path d="M 10.2411719991708 4.90721649484535  C 10.3102757238615 4.97594501718213  10.3448275862069 5.05498281786941  10.3448275862069 5.14432989690721  C 10.3448275862069 5.23367697594501  10.3102757238615 5.31271477663229  10.2411719991708 5.38144329896907  L 9.72289406399008 5.89690721649483  C 9.65379033929935 5.96563573883161  9.57432105590499 6  9.484486213807 6  C 9.39465137170896 6  9.31518208831463 5.96563573883161  9.24607836362384 5.89690721649483  L 5.17241379310346 1.84536082474227  L 1.09874922258308 5.89690721649483  C 1.02964549789232 5.96563573883161  0.950176214497986 6  0.860341372399944 6  C 0.770506530301958 6  0.69103724690757 5.96563573883161  0.621933522216864 5.89690721649483  L 0.103655587036116 5.38144329896907  C 0.0345518623453813 5.31271477663229  0 5.23367697594501  0 5.14432989690721  C 0 5.05498281786941  0.0345518623453813 4.97594501718213  0.103655587036116 4.90721649484535  L 4.93400594292032 0.103092783505168  C 5.00310966761111 0.0343642611683883  5.0825789510055 0  5.17241379310346 0  C 5.26224863520144 0  5.34171791859583 0.0343642611683883  5.41082164328662 0.103092783505168  L 10.2411719991708 4.90721649484535  Z " fill-rule="nonzero" fill="#ffffff" stroke="none" transform="matrix(1 0 0 1 195 97 )" />
  </g>
</svg>