<?xml version="1.0" encoding="utf-8"?>
<svg version="1.1" xmlns:xlink="http://www.w3.org/1999/xlink" width="11px" height="6px" xmlns="http://www.w3.org/2000/svg">
  <g transform="matrix(1 0 0 1 -194 -27 )">
    <path d="M 10.2411719991708 0.618556701030926  C 10.3102757238615 0.687285223367695  10.3448275862069 0.766323024054984  10.3448275862069 0.855670103092784  C 10.3448275862069 0.945017182130584  10.3102757238615 1.02405498281787  10.2411719991708 1.09278350515464  L 5.41082164328657 5.89690721649485  C 5.3417179185958 5.96563573883162  5.26224863520144 6  5.17241379310349 6  C 5.08257895100547 6  5.00310966761111 5.96563573883162  4.93400594292035 5.89690721649485  L 0.103655587036144 1.09278350515464  C 0.0345518623453813 1.02405498281787  0 0.945017182130584  0 0.855670103092784  C 0 0.766323024054984  0.0345518623453813 0.687285223367695  0.103655587036144 0.618556701030926  L 0.621933522216864 0.103092783505154  C 0.691037246907626 0.0343642611683848  0.770506530301987 0  0.860341372400001 0  C 0.950176214497958 0  1.02964549789232 0.0343642611683848  1.09874922258308 0.103092783505154  L 5.17241379310349 4.15463917525773  L 9.24607836362384 0.103092783505154  C 9.3151820883146 0.0343642611683848  9.39465137170896 0  9.48448621380692 0  C 9.57432105590493 0  9.65379033929929 0.0343642611683848  9.72289406399005 0.103092783505154  L 10.2411719991708 0.618556701030926  Z " fill-rule="nonzero" fill="#ffffff" stroke="none" transform="matrix(1 0 0 1 194 27 )" />
  </g>
</svg>