<?xml version="1.0" encoding="utf-8"?>
<svg version="1.1" xmlns:xlink="http://www.w3.org/1999/xlink" width="121px" height="93px" xmlns="http://www.w3.org/2000/svg">
  <g transform="matrix(1 0 0 1 -929 -29 )">
    <path d="M 22 67  L 33 67  L 33 76  L 22 76  L 22 67  Z M 22 17  L 33 17  L 33 26  L 22 26  L 22 17  Z M 88 17  L 99 17  L 99 26  L 88 26  L 88 17  Z M 11 59  L 11 84  L 44 84  L 44 59  L 11 59  Z M 11 9  L 11 34  L 44 34  L 44 9  L 11 9  Z M 77 9  L 77 34  L 110 34  L 110 9  L 77 9  Z M 0 50  L 55 50  L 55 93  L 0 93  L 0 50  Z M 88 84  L 99 84  L 99 93  L 88 93  L 88 84  Z M 110 84  L 121 84  L 121 93  L 110 93  L 110 84  Z M 110 50  L 121 50  L 121 76  L 88 76  L 88 67  L 77 67  L 77 93  L 66 93  L 66 50  L 99 50  L 99 59  L 110 59  L 110 50  Z M 0 0  L 55 0  L 55 43  L 0 43  L 0 0  Z M 66 0  L 121 0  L 121 43  L 66 43  L 66 0  Z " fill-rule="nonzero" fill="#000000" stroke="none" transform="matrix(1 0 0 1 929 29 )" />
  </g>
</svg>