<?xml version="1.0" encoding="utf-8"?>
<svg version="1.1" xmlns:xlink="http://www.w3.org/1999/xlink" width="196px" height="27px" xmlns="http://www.w3.org/2000/svg">
  <defs>
    <mask fill="white" id="clip45">
      <path d="M 0 22  L 0 5  C 0 2.2  2.19999999999999 0  5 0  L 14.6318407960181 0  L 37.5174129353225 0  C 37.5174129353225 0  38.8441127694855 0  39.5074626865671 0  C 44.1509121061354 0  53.4378109452718 0  53.4378109452718 0  L 191 0  C 193.8 0  196 2.2  196 5  L 196 22  C 196 24.8  193.8 27  191 27  L 5 27  C 2.19999999999999 27  0 24.8  0 22  Z " fill-rule="evenodd" />
    </mask>
  </defs>
  <g transform="matrix(1 0 0 1 -394 -108 )">
    <path d="M 0 22  L 0 5  C 0 2.2  2.19999999999999 0  5 0  L 14.6318407960181 0  L 37.5174129353225 0  C 37.5174129353225 0  38.8441127694855 0  39.5074626865671 0  C 44.1509121061354 0  53.4378109452718 0  53.4378109452718 0  L 191 0  C 193.8 0  196 2.2  196 5  L 196 22  C 196 24.8  193.8 27  191 27  L 5 27  C 2.19999999999999 27  0 24.8  0 22  Z " fill-rule="nonzero" fill="#ffffff" stroke="none" transform="matrix(1 0 0 1 394 108 )" />
    <path d="M 0 22  L 0 5  C 0 2.2  2.19999999999999 0  5 0  L 14.6318407960181 0  L 37.5174129353225 0  C 37.5174129353225 0  38.8441127694855 0  39.5074626865671 0  C 44.1509121061354 0  53.4378109452718 0  53.4378109452718 0  L 191 0  C 193.8 0  196 2.2  196 5  L 196 22  C 196 24.8  193.8 27  191 27  L 5 27  C 2.19999999999999 27  0 24.8  0 22  Z " stroke-width="2" stroke="#cccccc" fill="none" transform="matrix(1 0 0 1 394 108 )" mask="url(#clip45)" />
  </g>
</svg>