<?xml version="1.0" encoding="utf-8"?>
<svg version="1.1" xmlns:xlink="http://www.w3.org/1999/xlink" width="17px" height="18px" xmlns="http://www.w3.org/2000/svg">
  <g transform="matrix(1 0 0 1 -93 -353 )">
    <path d="M 16.8012987012987 4.10416666666667  C 16.9926406926407 4.21527777777778  17.0294372294372 4.33680555555556  16.9116883116883 4.46875  C 16.7792207792208 4.60069444444444  16.5658008658009 4.66666666666667  16.2714285714286 4.66666666666667  L 11 4.66666666666667  L 11 17.6666666666667  C 11.325974025974 17.7638888888889  11.2597402597403 17.84375  11.1272727272727 17.90625  C 10.9948051948052 17.96875  10.8255411255411 18  10.6194805194805 18  L 6.38051948051948 18  C 6.17445887445888 18  6.00519480519481 17.96875  5.87272727272727 17.90625  C 5.74025974025974 17.84375  5.67402597402597 17.7638888888889  6 17.6666666666667  L 6 4.66666666666667  L 0.728571428571429 4.66666666666667  C 0.41948051948052 4.66666666666667  0.206060606060606 4.60069444444444  0.0883116883116883 4.46875  C -0.0294372294372295 4.33680555555556  0.00735930735930734 4.21527777777778  0.198701298701299 4.10416666666667  L 7.92597402597403 0.104166666666668  C 8.07316017316017 0.0347222222222219  8.24242424242424 0  8.43376623376623 0  C 8.63982683982684 0  8.81645021645022 0.0347222222222219  8.96363636363636 0.104166666666668  L 16.8012987012987 4.10416666666667  Z " fill-rule="nonzero" fill="#95f204" stroke="none" transform="matrix(1 0 0 1 93 353 )" />
  </g>
</svg>