<?xml version="1.0" encoding="utf-8"?>
<svg version="1.1" xmlns:xlink="http://www.w3.org/1999/xlink" width="14px" height="10px" xmlns="http://www.w3.org/2000/svg">
  <g transform="matrix(1 0 0 1 -515 -106 )">
    <path d="M 13.8597194388778 1.03092783505155  C 13.9532398129593 1.14547537227949  14 1.27720504009164  14 1.42611683848797  C 14 1.57502863688431  13.9532398129593 1.70675830469645  13.8597194388778 1.8213058419244  L 7.32264529058116 9.82817869415807  C 7.22912491649967 9.94272623138602  7.12157648630595 10  7 10  C 6.87842351369406 10  6.77087508350033 9.94272623138602  6.67735470941884 9.82817869415807  L 0.140280561122244 1.8213058419244  C 0.0467601870407483 1.70675830469645  0 1.57502863688431  0 1.42611683848797  C 0 1.27720504009164  0.0467601870407483 1.14547537227949  0.140280561122244 1.03092783505155  L 0.841683366733467 0.171821305841925  C 0.935203740814964 0.0572737686139735  1.04275217100868 0  1.16432865731463 0  C 1.28590514362057 0  1.3934535738143 0.0572737686139735  1.48697394789579 0.171821305841925  L 7 6.92439862542955  L 12.5130260521042 0.171821305841925  C 12.6065464261857 0.0572737686139735  12.7140948563794 0  12.8356713426854 0  C 12.9572478289913 0  13.064796259185 0.0572737686139735  13.1583166332665 0.171821305841925  L 13.8597194388778 1.03092783505155  Z " fill-rule="nonzero" fill="#7f7f7f" stroke="none" transform="matrix(1 0 0 1 515 106 )" />
  </g>
</svg>