<?xml version="1.0" encoding="utf-8"?>
<svg version="1.1" xmlns:xlink="http://www.w3.org/1999/xlink" width="30px" height="30px" xmlns="http://www.w3.org/2000/svg">
  <defs>
    <filter x="1079px" y="270px" width="30px" height="30px" filterUnits="userSpaceOnUse" id="filter37">
      <feOffset dx="1" dy="1" in="SourceAlpha" result="shadowOffsetInner" />
      <feGaussianBlur stdDeviation="2.5" in="shadowOffsetInner" result="shadowGaussian" />
      <feComposite in2="shadowGaussian" operator="atop" in="SourceAlpha" result="shadowComposite" />
      <feColorMatrix type="matrix" values="0 0 0 0 0  0 0 0 0 0  0 0 0 0 0  0 0 0 0.698039215686274 0  " in="shadowComposite" />
    </filter>
    <g id="widget38">
      <path d="M 1093 274  C 1098.6 274  1103 278.4  1103 284  C 1103 289.6  1098.6 294  1093 294  C 1087.4 294  1083 289.6  1083 284  C 1083 278.4  1087.4 274  1093 274  Z " fill-rule="nonzero" fill="#d7d7d7" stroke="none" />
      <path d="M 1093 274.5  C 1098.32 274.5  1102.5 278.68  1102.5 284  C 1102.5 289.32  1098.32 293.5  1093 293.5  C 1087.68 293.5  1083.5 289.32  1083.5 284  C 1083.5 278.68  1087.68 274.5  1093 274.5  Z " stroke-width="1" stroke="#ffffff" fill="none" />
    </g>
  </defs>
  <g transform="matrix(1 0 0 1 -1079 -270 )">
    <use xlink:href="#widget38" filter="url(#filter37)" />
    <use xlink:href="#widget38" />
  </g>
</svg>