<?xml version="1.0" encoding="utf-8"?>
<svg version="1.1" xmlns:xlink="http://www.w3.org/1999/xlink" width="30px" height="30px" xmlns="http://www.w3.org/2000/svg">
  <defs>
    <filter x="1290px" y="287px" width="30px" height="30px" filterUnits="userSpaceOnUse" id="filter39">
      <feOffset dx="1" dy="1" in="SourceAlpha" result="shadowOffsetInner" />
      <feGaussianBlur stdDeviation="2.5" in="shadowOffsetInner" result="shadowGaussian" />
      <feComposite in2="shadowGaussian" operator="atop" in="SourceAlpha" result="shadowComposite" />
      <feColorMatrix type="matrix" values="0 0 0 0 0  0 0 0 0 0  0 0 0 0 0  0 0 0 0.698039215686274 0  " in="shadowComposite" />
    </filter>
    <g id="widget40">
      <path d="M 1304 291  C 1309.6 291  1314 295.4  1314 301  C 1314 306.6  1309.6 311  1304 311  C 1298.4 311  1294 306.6  1294 301  C 1294 295.4  1298.4 291  1304 291  Z " fill-rule="nonzero" fill="#009dd9" stroke="none" />
      <path d="M 1304 291.5  C 1309.32 291.5  1313.5 295.68  1313.5 301  C 1313.5 306.32  1309.32 310.5  1304 310.5  C 1298.68 310.5  1294.5 306.32  1294.5 301  C 1294.5 295.68  1298.68 291.5  1304 291.5  Z " stroke-width="1" stroke="#ffffff" fill="none" />
    </g>
  </defs>
  <g transform="matrix(1 0 0 1 -1290 -287 )">
    <use xlink:href="#widget40" filter="url(#filter39)" />
    <use xlink:href="#widget40" />
  </g>
</svg>