<?xml version="1.0" encoding="utf-8"?>
<svg version="1.1" xmlns:xlink="http://www.w3.org/1999/xlink" width="12px" height="12px" viewBox="822 275  12 12" xmlns="http://www.w3.org/2000/svg">
  <path d="M 828 275  C 831.36 275  834 277.64  834 281  C 834 284.36  831.36 287  828 287  C 824.64 287  822 284.36  822 281  C 822 277.64  824.64 275  828 275  Z " fill-rule="nonzero" fill="#f0f0f0" stroke="none" />
  <path d="M 828 275.5  C 831.08 275.5  833.5 277.92  833.5 281  C 833.5 284.08  831.08 286.5  828 286.5  C 824.92 286.5  822.5 284.08  822.5 281  C 822.5 277.92  824.92 275.5  828 275.5  Z " stroke-width="1" stroke="#797979" fill="none" />
  <path d="M 828 284  C 826.32 284  825 282.68  825 281  C 825 279.32  826.32 278  828 278  C 829.68 278  831 279.32  831 281  C 831 282.68  829.68 284  828 284  " fill-rule="nonzero" fill="#797979" stroke="none" />
</svg>