<?xml version="1.0" encoding="utf-8"?>
<svg version="1.1" xmlns:xlink="http://www.w3.org/1999/xlink" width="12px" height="12px" viewBox="823 393  12 12" xmlns="http://www.w3.org/2000/svg">
  <path d="M 829 393  C 832.36 393  835 395.64  835 399  C 835 402.36  832.36 405  829 405  C 825.64 405  823 402.36  823 399  C 823 395.64  825.64 393  829 393  Z " fill-rule="nonzero" fill="#f0f0f0" stroke="none" />
  <path d="M 829 393.5  C 832.08 393.5  834.5 395.92  834.5 399  C 834.5 402.08  832.08 404.5  829 404.5  C 825.92 404.5  823.5 402.08  823.5 399  C 823.5 395.92  825.92 393.5  829 393.5  Z " stroke-width="1" stroke="#797979" fill="none" />
  <path d="M 829 402  C 827.32 402  826 400.68  826 399  C 826 397.32  827.32 396  829 396  C 830.68 396  832 397.32  832 399  C 832 400.68  830.68 402  829 402  " fill-rule="nonzero" fill="#797979" stroke="none" />
</svg>