<?xml version="1.0" encoding="utf-8"?>
<svg version="1.1" xmlns:xlink="http://www.w3.org/1999/xlink" width="12px" height="12px" viewBox="900 334  12 12" xmlns="http://www.w3.org/2000/svg">
  <path d="M 906 334  C 909.36 334  912 336.64  912 340  C 912 343.36  909.36 346  906 346  C 902.64 346  900 343.36  900 340  C 900 336.64  902.64 334  906 334  Z " fill-rule="nonzero" fill="#ffffff" stroke="none" />
  <path d="M 906 334.5  C 909.08 334.5  911.5 336.92  911.5 340  C 911.5 343.08  909.08 345.5  906 345.5  C 902.92 345.5  900.5 343.08  900.5 340  C 900.5 336.92  902.92 334.5  906 334.5  Z " stroke-width="1" stroke="#797979" fill="none" />
  <path d="M 906 343  C 904.32 343  903 341.68  903 340  C 903 338.32  904.32 337  906 337  C 907.68 337  909 338.32  909 340  C 909 341.68  907.68 343  906 343  " fill-rule="nonzero" fill="#797979" stroke="none" />
</svg>