<?xml version="1.0" encoding="utf-8"?>
<svg version="1.1" xmlns:xlink="http://www.w3.org/1999/xlink" width="12px" height="12px" viewBox="822 334  12 12" xmlns="http://www.w3.org/2000/svg">
  <path d="M 828 334  C 831.36 334  834 336.64  834 340  C 834 343.36  831.36 346  828 346  C 824.64 346  822 343.36  822 340  C 822 336.64  824.64 334  828 334  Z " fill-rule="nonzero" fill="#f0f0f0" stroke="none" />
  <path d="M 828 334.5  C 831.08 334.5  833.5 336.92  833.5 340  C 833.5 343.08  831.08 345.5  828 345.5  C 824.92 345.5  822.5 343.08  822.5 340  C 822.5 336.92  824.92 334.5  828 334.5  Z " stroke-width="1" stroke="#797979" fill="none" />
  <path d="M 828 343  C 826.32 343  825 341.68  825 340  C 825 338.32  826.32 337  828 337  C 829.68 337  831 338.32  831 340  C 831 341.68  829.68 343  828 343  " fill-rule="nonzero" fill="#797979" stroke="none" />
</svg>