<?xml version="1.0" encoding="utf-8"?>
<svg version="1.1" xmlns:xlink="http://www.w3.org/1999/xlink" width="118px" height="124px" xmlns="http://www.w3.org/2000/svg">
  <defs>
    <mask fill="white" id="clip43">
      <path d="M 58.2625 0.64750111182743  L 44.3985620491938 11  L 7.375 11  C 3.245 10.7826086956522  0 13.1547826086957  0 16.1739130434783  L 0 118.608695652174  C 0 121.627826086957  3.245 124  7.375 124  L 110.625 124  C 114.755 124  118 121.627826086957  118 118.608695652174  L 118 16.1739130434783  C 118 13.1547826086957  114.755 10.7826086956522  110.625 11  L 72.1267326778931 11  L 58.2625 0.64750111182743  Z " fill-rule="evenodd" />
    </mask>
  </defs>
  <g>
    <path d="M 58.2625 0.64750111182743  L 44.3985620491938 11  L 7.375 11  C 3.245 10.7826086956522  0 13.1547826086957  0 16.1739130434783  L 0 118.608695652174  C 0 121.627826086957  3.245 124  7.375 124  L 110.625 124  C 114.755 124  118 121.627826086957  118 118.608695652174  L 118 16.1739130434783  C 118 13.1547826086957  114.755 10.7826086956522  110.625 11  L 72.1267326778931 11  L 58.2625 0.64750111182743  Z " fill-rule="nonzero" fill="#ffffff" stroke="none" />
    <path d="M 58.2625 0.64750111182743  L 44.3985620491938 11  L 7.375 11  C 3.245 10.7826086956522  0 13.1547826086957  0 16.1739130434783  L 0 118.608695652174  C 0 121.627826086957  3.245 124  7.375 124  L 110.625 124  C 114.755 124  118 121.627826086957  118 118.608695652174  L 118 16.1739130434783  C 118 13.1547826086957  114.755 10.7826086956522  110.625 11  L 72.1267326778931 11  L 58.2625 0.64750111182743  Z " stroke-width="2" stroke="#f2f2f2" fill="none" mask="url(#clip43)" />
  </g>
</svg>