<?xml version="1.0" encoding="utf-8"?>
<svg version="1.1" xmlns:xlink="http://www.w3.org/1999/xlink" width="12px" height="12px" viewBox="125 292  12 12" xmlns="http://www.w3.org/2000/svg">
  <path d="M 131 292  C 134.36 292  137 294.64  137 298  C 137 301.36  134.36 304  131 304  C 127.64 304  125 301.36  125 298  C 125 294.64  127.64 292  131 292  Z " fill-rule="nonzero" fill="#f0f0f0" stroke="none" />
  <path d="M 131 292.5  C 134.08 292.5  136.5 294.92  136.5 298  C 136.5 301.08  134.08 303.5  131 303.5  C 127.92 303.5  125.5 301.08  125.5 298  C 125.5 294.92  127.92 292.5  131 292.5  Z " stroke-width="1" stroke="#797979" fill="none" />
  <path d="M 131 301  C 129.32 301  128 299.68  128 298  C 128 296.32  129.32 295  131 295  C 132.68 295  134 296.32  134 298  C 134 299.68  132.68 301  131 301  " fill-rule="nonzero" fill="#797979" stroke="none" />
</svg>