<?xml version="1.0" encoding="utf-8"?>
<svg version="1.1" xmlns:xlink="http://www.w3.org/1999/xlink" width="12px" height="12px" viewBox="400 257  12 12" xmlns="http://www.w3.org/2000/svg">
  <path d="M 406 257  C 409.36 257  412 259.64  412 263  C 412 266.36  409.36 269  406 269  C 402.64 269  400 266.36  400 263  C 400 259.64  402.64 257  406 257  Z " fill-rule="nonzero" fill="#ffffff" stroke="none" />
  <path d="M 406 257.5  C 409.08 257.5  411.5 259.92  411.5 263  C 411.5 266.08  409.08 268.5  406 268.5  C 402.92 268.5  400.5 266.08  400.5 263  C 400.5 259.92  402.92 257.5  406 257.5  Z " stroke-width="1" stroke="#797979" fill="none" />
  <path d="M 406 266  C 404.32 266  403 264.68  403 263  C 403 261.32  404.32 260  406 260  C 407.68 260  409 261.32  409 263  C 409 264.68  407.68 266  406 266  " fill-rule="nonzero" fill="#797979" stroke="none" />
</svg>