<?xml version="1.0" encoding="utf-8"?>
<svg version="1.1" xmlns:xlink="http://www.w3.org/1999/xlink" width="12px" height="12px" viewBox="208 292  12 12" xmlns="http://www.w3.org/2000/svg">
  <path d="M 214 292  C 217.36 292  220 294.64  220 298  C 220 301.36  217.36 304  214 304  C 210.64 304  208 301.36  208 298  C 208 294.64  210.64 292  214 292  Z " fill-rule="nonzero" fill="#f0f0f0" stroke="none" />
  <path d="M 214 292.5  C 217.08 292.5  219.5 294.92  219.5 298  C 219.5 301.08  217.08 303.5  214 303.5  C 210.92 303.5  208.5 301.08  208.5 298  C 208.5 294.92  210.92 292.5  214 292.5  Z " stroke-width="1" stroke="#797979" fill="none" />
  <path d="M 214 301  C 212.32 301  211 299.68  211 298  C 211 296.32  212.32 295  214 295  C 215.68 295  217 296.32  217 298  C 217 299.68  215.68 301  214 301  " fill-rule="nonzero" fill="#797979" stroke="none" />
</svg>