<?xml version="1.0" encoding="utf-8"?>
<svg version="1.1" xmlns:xlink="http://www.w3.org/1999/xlink" width="12px" height="12px" viewBox="483 257  12 12" xmlns="http://www.w3.org/2000/svg">
  <path d="M 489 257  C 492.36 257  495 259.64  495 263  C 495 266.36  492.36 269  489 269  C 485.64 269  483 266.36  483 263  C 483 259.64  485.64 257  489 257  Z " fill-rule="nonzero" fill="#ffffff" stroke="none" />
  <path d="M 489 257.5  C 492.08 257.5  494.5 259.92  494.5 263  C 494.5 266.08  492.08 268.5  489 268.5  C 485.92 268.5  483.5 266.08  483.5 263  C 483.5 259.92  485.92 257.5  489 257.5  Z " stroke-width="1" stroke="#797979" fill="none" />
  <path d="M 489 266  C 487.32 266  486 264.68  486 263  C 486 261.32  487.32 260  489 260  C 490.68 260  492 261.32  492 263  C 492 264.68  490.68 266  489 266  " fill-rule="nonzero" fill="#797979" stroke="none" />
</svg>