<?xml version="1.0" encoding="utf-8"?>
<svg version="1.1" xmlns:xlink="http://www.w3.org/1999/xlink" width="11px" height="8px" xmlns="http://www.w3.org/2000/svg">
  <g transform="matrix(1 0 0 1 -266 -161 )">
    <path d="M 10.7288468562741 7.17525773195878  C 10.8012412345216 7.08361970217641  10.8374384236453 6.97823596792671  10.8374384236453 6.85910652920964  C 10.8374384236453 6.73997709049256  10.8012412345216 6.63459335624285  10.7288468562741 6.54295532646049  L 5.66847981677641 0.137457044673539  C 5.59608543852893 0.0458190148911797  5.51283190354437 0  5.41871921182264 0  C 5.32460652010096 0  5.24135298511635 0.0458190148911797  5.16895860686889 0.137457044673539  L 0.108591567371198 6.54295532646049  C 0.0361971891237179 6.63459335624285  0 6.73997709049256  0 6.85910652920964  C 0 6.97823596792671  0.0361971891237179 7.08361970217641  0.108591567371198 7.17525773195878  L 0.651549404227146 7.86254295532646  C 0.723943782474649 7.95418098510883  0.807197317459231 8  0.901310009180938 8  C 0.995422700902623 8  1.07867623588721 7.95418098510883  1.15107061413466 7.86254295532646  L 5.41871921182264 2.46048109965636  L 9.68636780951062 7.86254295532646  C 9.7587621877581 7.95418098510883  9.8420157227427 8  9.93612841446439 8  C 10.0302411061861 8  10.1134946411707 7.95418098510883  10.1858890194181 7.86254295532646  L 10.7288468562741 7.17525773195878  Z " fill-rule="nonzero" fill="#999999" stroke="none" transform="matrix(1 0 0 1 266 161 )" />
  </g>
</svg>