<?xml version="1.0" encoding="utf-8"?>
<svg version="1.1" xmlns:xlink="http://www.w3.org/1999/xlink" width="11px" height="8px" xmlns="http://www.w3.org/2000/svg">
  <g transform="matrix(1 0 0 1 -266 -161 )">
    <path d="M 10.7288468562741 0.82474226804122  C 10.8012412345216 0.916380297823594  10.8374384236453 1.02176403207329  10.8374384236453 1.14089347079036  C 10.8374384236453 1.26002290950744  10.8012412345216 1.36540664375715  10.7288468562741 1.45704467353951  L 5.66847981677641 7.86254295532646  C 5.59608543852893 7.95418098510882  5.51283190354437 8  5.41871921182264 8  C 5.32460652010096 8  5.24135298511635 7.95418098510882  5.16895860686889 7.86254295532646  L 0.108591567371198 1.45704467353951  C 0.0361971891237179 1.36540664375715  0 1.26002290950744  0 1.14089347079036  C 0 1.02176403207329  0.0361971891237179 0.916380297823594  0.108591567371198 0.82474226804122  L 0.651549404227146 0.137457044673539  C 0.723943782474649 0.0458190148911655  0.807197317459231 0  0.901310009180938 0  C 0.995422700902623 0  1.07867623588721 0.0458190148911655  1.15107061413466 0.137457044673539  L 5.41871921182264 5.53951890034364  L 9.68636780951062 0.137457044673539  C 9.7587621877581 0.0458190148911655  9.8420157227427 0  9.93612841446439 0  C 10.0302411061861 0  10.1134946411707 0.0458190148911655  10.1858890194181 0.137457044673539  L 10.7288468562741 0.82474226804122  Z " fill-rule="nonzero" fill="#999999" stroke="none" transform="matrix(1 0 0 1 266 161 )" />
  </g>
</svg>