<?xml version="1.0" encoding="utf-8"?>
<svg version="1.1" xmlns:xlink="http://www.w3.org/1999/xlink" width="12px" height="12px" viewBox="142 633  12 12" xmlns="http://www.w3.org/2000/svg">
  <path d="M 148 633  C 151.36 633  154 635.64  154 639  C 154 642.36  151.36 645  148 645  C 144.64 645  142 642.36  142 639  C 142 635.64  144.64 633  148 633  Z " fill-rule="nonzero" fill="#f0f0f0" stroke="none" />
  <path d="M 148 633.5  C 151.08 633.5  153.5 635.92  153.5 639  C 153.5 642.08  151.08 644.5  148 644.5  C 144.92 644.5  142.5 642.08  142.5 639  C 142.5 635.92  144.92 633.5  148 633.5  Z " stroke-width="1" stroke="#797979" fill="none" />
  <path d="M 148 642  C 146.32 642  145 640.68  145 639  C 145 637.32  146.32 636  148 636  C 149.68 636  151 637.32  151 639  C 151 640.68  149.68 642  148 642  " fill-rule="nonzero" fill="#797979" stroke="none" />
</svg>