<?xml version="1.0" encoding="utf-8"?>
<svg version="1.1" xmlns:xlink="http://www.w3.org/1999/xlink" width="12px" height="12px" viewBox="600 637  12 12" xmlns="http://www.w3.org/2000/svg">
  <path d="M 606 637  C 609.36 637  612 639.64  612 643  C 612 646.36  609.36 649  606 649  C 602.64 649  600 646.36  600 643  C 600 639.64  602.64 637  606 637  Z " fill-rule="nonzero" fill="#ffffff" stroke="none" />
  <path d="M 606 637.5  C 609.08 637.5  611.5 639.92  611.5 643  C 611.5 646.08  609.08 648.5  606 648.5  C 602.92 648.5  600.5 646.08  600.5 643  C 600.5 639.92  602.92 637.5  606 637.5  Z " stroke-width="1" stroke="#797979" fill="none" />
  <path d="M 606 646  C 604.32 646  603 644.68  603 643  C 603 641.32  604.32 640  606 640  C 607.68 640  609 641.32  609 643  C 609 644.68  607.68 646  606 646  " fill-rule="nonzero" fill="#797979" stroke="none" />
</svg>