<?xml version="1.0" encoding="utf-8"?>
<svg version="1.1" xmlns:xlink="http://www.w3.org/1999/xlink" width="12px" height="12px" viewBox="247 633  12 12" xmlns="http://www.w3.org/2000/svg">
  <path d="M 253 633  C 256.36 633  259 635.64  259 639  C 259 642.36  256.36 645  253 645  C 249.64 645  247 642.36  247 639  C 247 635.64  249.64 633  253 633  Z " fill-rule="nonzero" fill="#ffffff" stroke="none" />
  <path d="M 253 633.5  C 256.08 633.5  258.5 635.92  258.5 639  C 258.5 642.08  256.08 644.5  253 644.5  C 249.92 644.5  247.5 642.08  247.5 639  C 247.5 635.92  249.92 633.5  253 633.5  Z " stroke-width="1" stroke="#797979" fill="none" />
  <path d="M 253 642  C 251.32 642  250 640.68  250 639  C 250 637.32  251.32 636  253 636  C 254.68 636  256 637.32  256 639  C 256 640.68  254.68 642  253 642  " fill-rule="nonzero" fill="#797979" stroke="none" />
</svg>