<?xml version="1.0" encoding="utf-8"?>
<svg version="1.1" xmlns:xlink="http://www.w3.org/1999/xlink" width="108px" height="53px" xmlns="http://www.w3.org/2000/svg">
  <defs>
    <mask fill="white" id="clip68">
      <path d="M 0 53  L 0 0  L 91.6666666666679 0  L 108 0  L 108 8.33333333333212  L 108 53  L 0 53  Z " fill-rule="evenodd" />
    </mask>
  </defs>
  <g transform="matrix(1 0 0 1 -189 -110 )">
    <path d="M 0 53  L 0 0  L 91.6666666666679 0  L 108 0  L 108 8.33333333333212  L 108 53  L 0 53  Z " fill-rule="nonzero" fill="#ffffff" stroke="none" transform="matrix(1 0 0 1 189 110 )" />
    <path d="M 0 53  L 0 0  L 91.6666666666679 0  L 108 0  L 108 8.33333333333212  L 108 53  L 0 53  Z " stroke-width="2" stroke="#ffffff" fill="none" transform="matrix(1 0 0 1 189 110 )" mask="url(#clip68)" />
  </g>
</svg>