<?xml version="1.0" encoding="utf-8"?>
<svg version="1.1" xmlns:xlink="http://www.w3.org/1999/xlink" width="128px" height="53px" xmlns="http://www.w3.org/2000/svg">
  <defs>
    <mask fill="white" id="clip67">
      <path d="M 0 53  L 0 0  L 108.641975308643 0  L 128 0  L 128 8.33333333333212  L 128 53  L 0 53  Z " fill-rule="evenodd" />
    </mask>
  </defs>
  <g transform="matrix(1 0 0 1 -40 -110 )">
    <path d="M 0 53  L 0 0  L 108.641975308643 0  L 128 0  L 128 8.33333333333212  L 128 53  L 0 53  Z " fill-rule="nonzero" fill="#ffffff" stroke="none" transform="matrix(1 0 0 1 40 110 )" />
    <path d="M 0 53  L 0 0  L 108.641975308643 0  L 128 0  L 128 8.33333333333212  L 128 53  L 0 53  Z " stroke-width="2" stroke="#ffffff" fill="none" transform="matrix(1 0 0 1 40 110 )" mask="url(#clip67)" />
  </g>
</svg>