<?xml version="1.0" encoding="utf-8"?>
<svg version="1.1" xmlns:xlink="http://www.w3.org/1999/xlink" width="75px" height="53px" xmlns="http://www.w3.org/2000/svg">
  <defs>
    <mask fill="white" id="clip42">
      <path d="M 0 43.1851851851852  L 0 9.81481481481481  C 0 4.31851851851852  0.282051282051281 0  0.641025641025641 0  L 18.974358974359 0  L 74.3589743589744 0  C 74.7179487179487 0  75 4.31851851851852  75 9.81481481481481  L 75 43.1851851851852  C 75 48.6814814814815  74.7179487179487 53  74.3589743589744 53  L 0.641025641025641 53  C 0.282051282051281 53  0 48.6814814814815  0 43.1851851851852  Z " fill-rule="evenodd" />
    </mask>
  </defs>
  <g transform="matrix(1 0 0 1 -148 -293 )">
    <path d="M 0 43.1851851851852  L 0 9.81481481481481  C 0 4.31851851851852  0.282051282051281 0  0.641025641025641 0  L 18.974358974359 0  L 74.3589743589744 0  C 74.7179487179487 0  75 4.31851851851852  75 9.81481481481481  L 75 43.1851851851852  C 75 48.6814814814815  74.7179487179487 53  74.3589743589744 53  L 0.641025641025641 53  C 0.282051282051281 53  0 48.6814814814815  0 43.1851851851852  Z " fill-rule="nonzero" fill="#f2f2f2" stroke="none" transform="matrix(1 0 0 1 148 293 )" />
    <path d="M 0 43.1851851851852  L 0 9.81481481481481  C 0 4.31851851851852  0.282051282051281 0  0.641025641025641 0  L 18.974358974359 0  L 74.3589743589744 0  C 74.7179487179487 0  75 4.31851851851852  75 9.81481481481481  L 75 43.1851851851852  C 75 48.6814814814815  74.7179487179487 53  74.3589743589744 53  L 0.641025641025641 53  C 0.282051282051281 53  0 48.6814814814815  0 43.1851851851852  Z " stroke-width="2" stroke="#cccccc" fill="none" transform="matrix(1 0 0 1 148 293 )" mask="url(#clip42)" />
  </g>
</svg>