<?xml version="1.0" encoding="utf-8"?>
<svg version="1.1" xmlns:xlink="http://www.w3.org/1999/xlink" width="585px" height="27px" xmlns="http://www.w3.org/2000/svg">
  <defs>
    <mask fill="white" id="clip41">
      <path d="M 0 22  L 0 5  C 0 2.2  2.19999999999999 0  5 0  L 148 0  L 580 0  C 582.8 0  585 2.2  585 5  L 585 22  C 585 24.8  582.8 27  580 27  L 5 27  C 2.19999999999999 27  0 24.8  0 22  Z " fill-rule="evenodd" />
    </mask>
  </defs>
  <g transform="matrix(1 0 0 1 -148 -121 )">
    <path d="M 0 22  L 0 5  C 0 2.2  2.19999999999999 0  5 0  L 148 0  L 580 0  C 582.8 0  585 2.2  585 5  L 585 22  C 585 24.8  582.8 27  580 27  L 5 27  C 2.19999999999999 27  0 24.8  0 22  Z " fill-rule="nonzero" fill="#ffffff" stroke="none" transform="matrix(1 0 0 1 148 121 )" />
    <path d="M 0 22  L 0 5  C 0 2.2  2.19999999999999 0  5 0  L 148 0  L 580 0  C 582.8 0  585 2.2  585 5  L 585 22  C 585 24.8  582.8 27  580 27  L 5 27  C 2.19999999999999 27  0 24.8  0 22  Z " stroke-width="2" stroke="#cccccc" fill="none" transform="matrix(1 0 0 1 148 121 )" mask="url(#clip41)" />
  </g>
</svg>