<?xml version="1.0" encoding="utf-8"?>
<svg version="1.1" xmlns:xlink="http://www.w3.org/1999/xlink" width="83px" height="75px" xmlns="http://www.w3.org/2000/svg">
  <g transform="matrix(1 0 0 1 -288 -504 )">
    <path d="M 288 504  L 371 504  L 371 579  L 288 579  L 288 504  " fill-rule="nonzero" fill="#cccccc" stroke="none" />
    <path d="M 293 509  L 366 509  L 366 574  L 293 574  L 293 509  " fill-rule="nonzero" fill="#ffffff" stroke="none" />
    <path d="M 336.785 526.5  C 333.635 526.5  331.16 524.025  331.16 520.875  C 331.16 517.725  333.635 515.25  336.785 515.25  C 339.935 515.25  342.41 517.725  342.41 520.875  C 342.41 524.025  339.935 526.5  336.785 526.5  " fill-rule="nonzero" fill="#cccccc" stroke="none" />
    <path d="M 295 572  L 295 538.45  L 312.25 523.2  L 336.4 538.927710843373  L 350.2 532.35  L 364 538.927710843373  L 364 572  L 295 572  " fill-rule="nonzero" fill="#169bd5" stroke="none" />
  </g>
</svg>