<?xml version="1.0" encoding="utf-8"?>
<svg version="1.1" xmlns:xlink="http://www.w3.org/1999/xlink" width="118px" height="92px" xmlns="http://www.w3.org/2000/svg">
  <g transform="matrix(1 0 0 1 0 -80 )">
    <path d="M 0 80  L 118 80  L 118 172  L 0 172  L 0 80  " fill-rule="nonzero" fill="#cccccc" stroke="none" />
    <path d="M 6 86  L 112 86  L 112 166  L 6 166  L 6 86  " fill-rule="nonzero" fill="#ffffff" stroke="none" />
    <path d="M 68.26 107.6  C 64.396 107.6  61.36 104.564  61.36 100.7  C 61.36 96.836  64.396 93.8  68.26 93.8  C 72.124 93.8  75.16 96.836  75.16 100.7  C 75.16 104.564  72.124 107.6  68.26 107.6  " fill-rule="nonzero" fill="#cccccc" stroke="none" />
    <path d="M 9 164  L 9 122.75  L 34.25 104  L 69.6 128.915254237288  L 89.8 115.25  L 110 128.915254237288  L 110 164  L 9 164  " fill-rule="nonzero" fill="#169bd5" stroke="none" />
  </g>
</svg>