<?xml version="1.0" encoding="utf-8"?>
<svg version="1.1" xmlns:xlink="http://www.w3.org/1999/xlink" width="11px" height="7px" xmlns="http://www.w3.org/2000/svg">
  <g transform="matrix(1 0 0 1 -303 -97 )">
    <path d="M 10.7288468562741 6.27835051546393  C 10.8012412345216 6.19816723940436  10.8374384236453 6.10595647193587  10.8374384236453 6.00171821305844  C 10.8374384236453 5.89747995418099  10.8012412345216 5.80526918671249  10.7288468562741 5.72508591065292  L 5.66847981677643 0.12027491408935  C 5.59608543852891 0.0400916380297787  5.51283190354437 0  5.41871921182264 0  C 5.32460652010096 0  5.24135298511638 0.0400916380297787  5.16895860686889 0.12027491408935  L 3.25529073896086 2.23983395518333  L 0.108591567371198 5.72508591065292  C 0.0361971891237179 5.80526918671249  0 5.89747995418099  0 6.00171821305844  C 0 6.10595647193587  0.0361971891237179 6.19816723940436  0.108591567371198 6.27835051546393  L 0.651549404227146 6.87972508591065  C 0.723943782474627 6.95990836197024  0.807197317459254 7  0.901310009180938 7  C 0.995422700902623 7  1.07867623588721 6.95990836197024  1.15107061413469 6.87972508591065  L 2.73214006151387 5.12854866810655  L 5.41871921182264 2.15292096219932  L 9.6863678095106 6.87972508591065  C 9.75876218775812 6.95990836197024  9.8420157227427 7  9.93612841446439 7  C 10.0302411061861 7  10.1134946411707 6.95990836197024  10.1858890194181 6.87972508591065  L 10.7288468562741 6.27835051546393  Z " fill-rule="nonzero" fill="#999999" stroke="none" transform="matrix(1 0 0 1 303 97 )" />
  </g>
</svg>