<?xml version="1.0" encoding="utf-8"?>
<svg version="1.1" xmlns:xlink="http://www.w3.org/1999/xlink" width="11px" height="7px" xmlns="http://www.w3.org/2000/svg">
  <g transform="matrix(1 0 0 1 -303 -97 )">
    <path d="M 10.7288468562741 0.721649484536073  C 10.8012412345216 0.801832760595644  10.8374384236453 0.894043528064131  10.8374384236453 0.998281786941561  C 10.8374384236453 1.10252004581901  10.8012412345216 1.19473081328751  10.7288468562741 1.27491408934708  L 5.66847981677643 6.87972508591065  C 5.59608543852891 6.95990836197022  5.51283190354437 7  5.41871921182264 7  C 5.32460652010096 7  5.24135298511638 6.95990836197022  5.16895860686889 6.87972508591065  L 0.108591567371198 1.27491408934708  C 0.0361971891237179 1.19473081328751  0 1.10252004581901  0 0.998281786941561  C 0 0.894043528064131  0.0361971891237179 0.801832760595644  0.108591567371198 0.721649484536073  L 0.651549404227146 0.12027491408935  C 0.723943782474627 0.0400916380297645  0.807197317459254 0  0.901310009180938 0  C 0.995422700902623 0  1.07867623588721 0.0400916380297645  1.15107061413469 0.12027491408935  L 5.41871921182264 4.84707903780068  L 9.6863678095106 0.12027491408935  C 9.75876218775812 0.0400916380297645  9.8420157227427 0  9.93612841446439 0  C 10.0302411061861 0  10.1134946411707 0.0400916380297645  10.1858890194181 0.12027491408935  L 10.7288468562741 0.721649484536073  Z " fill-rule="nonzero" fill="#999999" stroke="none" transform="matrix(1 0 0 1 303 97 )" />
  </g>
</svg>