<?xml version="1.0" encoding="utf-8"?>
<svg version="1.1" xmlns:xlink="http://www.w3.org/1999/xlink" width="12px" height="12px" viewBox="241 343  12 12" xmlns="http://www.w3.org/2000/svg">
  <path d="M 247 343  C 250.36 343  253 345.64  253 349  C 253 352.36  250.36 355  247 355  C 243.64 355  241 352.36  241 349  C 241 345.64  243.64 343  247 343  Z " fill-rule="nonzero" fill="#ffffff" stroke="none" />
  <path d="M 247 343.5  C 250.08 343.5  252.5 345.92  252.5 349  C 252.5 352.08  250.08 354.5  247 354.5  C 243.92 354.5  241.5 352.08  241.5 349  C 241.5 345.92  243.92 343.5  247 343.5  Z " stroke-width="1" stroke="#797979" fill="none" />
  <path d="M 247 352  C 245.32 352  244 350.68  244 349  C 244 347.32  245.32 346  247 346  C 248.68 346  250 347.32  250 349  C 250 350.68  248.68 352  247 352  " fill-rule="nonzero" fill="#797979" stroke="none" />
</svg>