<?xml version="1.0" encoding="utf-8"?>
<svg version="1.1" xmlns:xlink="http://www.w3.org/1999/xlink" width="12px" height="12px" viewBox="176 538  12 12" xmlns="http://www.w3.org/2000/svg">
  <path d="M 182 538  C 185.36 538  188 540.64  188 544  C 188 547.36  185.36 550  182 550  C 178.64 550  176 547.36  176 544  C 176 540.64  178.64 538  182 538  Z " fill-rule="nonzero" fill="#ffffff" stroke="none" />
  <path d="M 182 538.5  C 185.08 538.5  187.5 540.92  187.5 544  C 187.5 547.08  185.08 549.5  182 549.5  C 178.92 549.5  176.5 547.08  176.5 544  C 176.5 540.92  178.92 538.5  182 538.5  Z " stroke-width="1" stroke="#797979" fill="none" />
  <path d="M 182 547  C 180.32 547  179 545.68  179 544  C 179 542.32  180.32 541  182 541  C 183.68 541  185 542.32  185 544  C 185 545.68  183.68 547  182 547  " fill-rule="nonzero" fill="#797979" stroke="none" />
</svg>