<?xml version="1.0" encoding="utf-8"?>
<svg version="1.1" xmlns:xlink="http://www.w3.org/1999/xlink" width="12px" height="12px" viewBox="176 341  12 12" xmlns="http://www.w3.org/2000/svg">
  <path d="M 182 341  C 185.36 341  188 343.64  188 347  C 188 350.36  185.36 353  182 353  C 178.64 353  176 350.36  176 347  C 176 343.64  178.64 341  182 341  Z " fill-rule="nonzero" fill="#f0f0f0" stroke="none" />
  <path d="M 182 341.5  C 185.08 341.5  187.5 343.92  187.5 347  C 187.5 350.08  185.08 352.5  182 352.5  C 178.92 352.5  176.5 350.08  176.5 347  C 176.5 343.92  178.92 341.5  182 341.5  Z " stroke-width="1" stroke="#797979" fill="none" />
  <path d="M 182 350  C 180.32 350  179 348.68  179 347  C 179 345.32  180.32 344  182 344  C 183.68 344  185 345.32  185 347  C 185 348.68  183.68 350  182 350  " fill-rule="nonzero" fill="#797979" stroke="none" />
</svg>