<?xml version="1.0" encoding="utf-8"?>
<svg version="1.1" xmlns:xlink="http://www.w3.org/1999/xlink" width="12px" height="12px" viewBox="241 540  12 12" xmlns="http://www.w3.org/2000/svg">
  <path d="M 247 540  C 250.36 540  253 542.64  253 546  C 253 549.36  250.36 552  247 552  C 243.64 552  241 549.36  241 546  C 241 542.64  243.64 540  247 540  Z " fill-rule="nonzero" fill="#f0f0f0" stroke="none" />
  <path d="M 247 540.5  C 250.08 540.5  252.5 542.92  252.5 546  C 252.5 549.08  250.08 551.5  247 551.5  C 243.92 551.5  241.5 549.08  241.5 546  C 241.5 542.92  243.92 540.5  247 540.5  Z " stroke-width="1" stroke="#797979" fill="none" />
  <path d="M 247 549  C 245.32 549  244 547.68  244 546  C 244 544.32  245.32 543  247 543  C 248.68 543  250 544.32  250 546  C 250 547.68  248.68 549  247 549  " fill-rule="nonzero" fill="#797979" stroke="none" />
</svg>