<?xml version="1.0" encoding="utf-8"?>
<svg version="1.1" xmlns:xlink="http://www.w3.org/1999/xlink" width="12px" height="12px" viewBox="928 293  12 12" xmlns="http://www.w3.org/2000/svg">
  <path d="M 934 293  C 937.36 293  940 295.64  940 299  C 940 302.36  937.36 305  934 305  C 930.64 305  928 302.36  928 299  C 928 295.64  930.64 293  934 293  Z " fill-rule="nonzero" fill="#ffffff" stroke="none" />
  <path d="M 934 293.5  C 937.08 293.5  939.5 295.92  939.5 299  C 939.5 302.08  937.08 304.5  934 304.5  C 930.92 304.5  928.5 302.08  928.5 299  C 928.5 295.92  930.92 293.5  934 293.5  Z " stroke-width="1" stroke="#797979" fill="none" />
  <path d="M 934 302  C 932.32 302  931 300.68  931 299  C 931 297.32  932.32 296  934 296  C 935.68 296  937 297.32  937 299  C 937 300.68  935.68 302  934 302  " fill-rule="nonzero" fill="#797979" stroke="none" />
</svg>