<?xml version="1.0" encoding="utf-8"?>
<svg version="1.1" xmlns:xlink="http://www.w3.org/1999/xlink" width="12px" height="12px" viewBox="622 254  12 12" xmlns="http://www.w3.org/2000/svg">
  <path d="M 628 254  C 631.36 254  634 256.64  634 260  C 634 263.36  631.36 266  628 266  C 624.64 266  622 263.36  622 260  C 622 256.64  624.64 254  628 254  Z " fill-rule="nonzero" fill="#ffffff" stroke="none" />
  <path d="M 628 254.5  C 631.08 254.5  633.5 256.92  633.5 260  C 633.5 263.08  631.08 265.5  628 265.5  C 624.92 265.5  622.5 263.08  622.5 260  C 622.5 256.92  624.92 254.5  628 254.5  Z " stroke-width="1" stroke="#797979" fill="none" />
  <path d="M 628 263  C 626.32 263  625 261.68  625 260  C 625 258.32  626.32 257  628 257  C 629.68 257  631 258.32  631 260  C 631 261.68  629.68 263  628 263  " fill-rule="nonzero" fill="#797979" stroke="none" />
</svg>