<?xml version="1.0" encoding="utf-8"?>
<svg version="1.1" xmlns:xlink="http://www.w3.org/1999/xlink" width="12px" height="12px" viewBox="867 253  12 12" xmlns="http://www.w3.org/2000/svg">
  <path d="M 873 253  C 876.36 253  879 255.64  879 259  C 879 262.36  876.36 265  873 265  C 869.64 265  867 262.36  867 259  C 867 255.64  869.64 253  873 253  Z " fill-rule="nonzero" fill="#f0f0f0" stroke="none" />
  <path d="M 873 253.5  C 876.08 253.5  878.5 255.92  878.5 259  C 878.5 262.08  876.08 264.5  873 264.5  C 869.92 264.5  867.5 262.08  867.5 259  C 867.5 255.92  869.92 253.5  873 253.5  Z " stroke-width="1" stroke="#797979" fill="none" />
  <path d="M 873 262  C 871.32 262  870 260.68  870 259  C 870 257.32  871.32 256  873 256  C 874.68 256  876 257.32  876 259  C 876 260.68  874.68 262  873 262  " fill-rule="nonzero" fill="#797979" stroke="none" />
</svg>