<?xml version="1.0" encoding="utf-8"?>
<svg version="1.1" xmlns:xlink="http://www.w3.org/1999/xlink" width="11px" height="5px" xmlns="http://www.w3.org/2000/svg">
  <g transform="matrix(1 0 0 1 -194 -98 )">
    <path d="M 10.8897795591182 0.515463917525773  C 10.9632598530394 0.572737686139747  11 0.638602520045818  11 0.713058419243987  C 11 0.787514318442153  10.9632598530394 0.853379152348224  10.8897795591182 0.910652920962199  L 5.75350701402806 4.91408934707904  C 5.68002672010688 4.97136311569301  5.59552438209753 5  5.5 5  C 5.40447561790247 5  5.31997327989312 4.97136311569301  5.24649298597194 4.91408934707904  L 0.110220440881764 0.910652920962199  C 0.036740146960588 0.853379152348224  0 0.787514318442153  0 0.713058419243987  C 0 0.638602520045818  0.036740146960588 0.572737686139747  0.110220440881764 0.515463917525773  L 0.661322645290581 0.0859106529209624  C 0.734802939211757 0.0286368843069867  0.819305277221109 0  0.914829659318637 0  C 1.01035404141617 0  1.09485637942552 0.0286368843069867  1.16833667334669 0.0859106529209624  L 5.5 3.46219931271478  L 9.83166332665331 0.0859106529209624  C 9.90514362057448 0.0286368843069867  9.98964595858383 0  10.0851703406814 0  C 10.1806947227789 0  10.2651970607882 0.0286368843069867  10.3386773547094 0.0859106529209624  L 10.8897795591182 0.515463917525773  Z " fill-rule="nonzero" fill="#ffffff" stroke="none" transform="matrix(1 0 0 1 194 98 )" />
  </g>
</svg>