<?xml version="1.0" encoding="utf-8"?>
<svg version="1.1" xmlns:xlink="http://www.w3.org/1999/xlink" width="11px" height="3px" xmlns="http://www.w3.org/2000/svg">
  <g transform="matrix(1 0 0 1 -194 -33 )">
    <path d="M 10.2411719991708 2.45360824742268  C 10.3102757238615 2.48797250859107  10.3448275862069 2.5274914089347  10.3448275862069 2.5721649484536  C 10.3448275862069 2.61683848797251  10.3102757238615 2.65635738831614  10.2411719991708 2.69072164948453  L 9.72289406399008 2.94845360824742  C 9.65379033929935 2.98281786941581  9.57432105590499 3  9.484486213807 3  C 9.39465137170896 3  9.31518208831463 2.98281786941581  9.24607836362384 2.94845360824742  L 5.17241379310346 0.922680412371136  L 1.09874922258308 2.94845360824742  C 1.02964549789232 2.98281786941581  0.950176214497986 3  0.860341372399944 3  C 0.770506530301958 3  0.69103724690757 2.98281786941581  0.621933522216864 2.94845360824742  L 0.103655587036116 2.69072164948453  C 0.0345518623453813 2.65635738831614  0 2.61683848797251  0 2.5721649484536  C 0 2.5274914089347  0.0345518623453813 2.48797250859107  0.103655587036116 2.45360824742268  L 4.93400594292032 0.0515463917525842  C 5.00310966761111 0.0171821305841942  5.0825789510055 0  5.17241379310346 0  C 5.26224863520144 0  5.34171791859583 0.0171821305841942  5.41082164328662 0.0515463917525842  L 10.2411719991708 2.45360824742268  Z " fill-rule="nonzero" fill="#ffffff" stroke="none" transform="matrix(1 0 0 1 194 33 )" />
  </g>
</svg>