<?xml version="1.0" encoding="utf-8"?>
<svg version="1.1" xmlns:xlink="http://www.w3.org/1999/xlink" width="14px" height="7px" xmlns="http://www.w3.org/2000/svg">
  <g transform="matrix(1 0 0 1 -393 -63 )">
    <path d="M 13.6548959988943 6.27835051546393  C 13.747034298482 6.19816723940436  13.7931034482758 6.10595647193587  13.7931034482758 6.00171821305844  C 13.7931034482758 5.89747995418099  13.747034298482 5.80526918671249  13.6548959988943 5.72508591065292  L 7.21442885771546 0.12027491408935  C 7.1222905581277 0.0400916380297787  7.01633151360193 0  6.89655172413791 0  C 6.77677193467395 0  6.67081289014811 0.0400916380297787  6.57867459056041 0.12027491408935  L 0.138207449381525 5.72508591065292  C 0.0460691497938228 5.80526918671249  0 5.89747995418099  0 6.00171821305844  C 0 6.10595647193587  0.0460691497938228 6.19816723940436  0.138207449381525 6.27835051546393  L 0.829244696289095 6.87972508591065  C 0.921382995876797 6.95990836197024  1.02734204040269 7  1.14712182986665 7  C 1.26690161933061 7  1.37286066385644 6.95990836197024  1.46499896344415 6.87972508591065  L 6.89655172413791 2.15292096219932  L 12.3281044848317 6.87972508591065  C 12.4202427844194 6.95990836197024  12.5262018289453 7  12.6459816184092 7  C 12.7657614078732 7  12.871720452399 6.95990836197024  12.9638587519867 6.87972508591065  L 13.6548959988943 6.27835051546393  Z " fill-rule="nonzero" fill="#999999" stroke="none" transform="matrix(1 0 0 1 393 63 )" />
  </g>
</svg>