<?xml version="1.0" encoding="utf-8"?>
<svg version="1.1" xmlns:xlink="http://www.w3.org/1999/xlink" width="14px" height="8px" xmlns="http://www.w3.org/2000/svg">
  <g transform="matrix(1 0 0 1 -711 -302 )">
    <path d="M 13.6548959988943 0.82474226804122  C 13.747034298482 0.916380297823594  13.7931034482758 1.02176403207329  13.7931034482758 1.14089347079036  C 13.7931034482758 1.26002290950744  13.747034298482 1.36540664375715  13.6548959988943 1.45704467353951  L 7.21442885771543 7.86254295532646  C 7.12229055812773 7.95418098510882  7.01633151360193 8  6.89655172413791 8  C 6.77677193467395 8  6.67081289014808 7.95418098510882  6.57867459056041 7.86254295532646  L 0.138207449381525 1.45704467353951  C 0.0460691497938228 1.36540664375715  0 1.26002290950744  0 1.14089347079036  C 0 1.02176403207329  0.0460691497938228 0.916380297823594  0.138207449381525 0.82474226804122  L 0.829244696289095 0.137457044673539  C 0.921382995876826 0.0458190148911655  1.02734204040266 0  1.14712182986665 0  C 1.26690161933061 0  1.37286066385644 0.0458190148911655  1.46499896344412 0.137457044673539  L 6.89655172413791 5.53951890034364  L 12.3281044848317 0.137457044673539  C 12.4202427844194 0.0458190148911655  12.5262018289453 0  12.6459816184092 0  C 12.7657614078732 0  12.871720452399 0.0458190148911655  12.9638587519867 0.137457044673539  L 13.6548959988943 0.82474226804122  Z " fill-rule="nonzero" fill="#999999" stroke="none" transform="matrix(1 0 0 1 711 302 )" />
  </g>
</svg>