<?xml version="1.0" encoding="utf-8"?>
<svg version="1.1" xmlns:xlink="http://www.w3.org/1999/xlink" width="12px" height="12px" viewBox="864 405  12 12" xmlns="http://www.w3.org/2000/svg">
  <path d="M 870 405  C 873.36 405  876 407.64  876 411  C 876 414.36  873.36 417  870 417  C 866.64 417  864 414.36  864 411  C 864 407.64  866.64 405  870 405  Z " fill-rule="nonzero" fill="#f0f0f0" stroke="none" />
  <path d="M 870 405.5  C 873.08 405.5  875.5 407.92  875.5 411  C 875.5 414.08  873.08 416.5  870 416.5  C 866.92 416.5  864.5 414.08  864.5 411  C 864.5 407.92  866.92 405.5  870 405.5  Z " stroke-width="1" stroke="#797979" fill="none" />
  <path d="M 870 414  C 868.32 414  867 412.68  867 411  C 867 409.32  868.32 408  870 408  C 871.68 408  873 409.32  873 411  C 873 412.68  871.68 414  870 414  " fill-rule="nonzero" fill="#797979" stroke="none" />
</svg>