<?xml version="1.0" encoding="utf-8"?>
<svg version="1.1" xmlns:xlink="http://www.w3.org/1999/xlink" width="12px" height="12px" viewBox="792 405  12 12" xmlns="http://www.w3.org/2000/svg">
  <path d="M 798 405  C 801.36 405  804 407.64  804 411  C 804 414.36  801.36 417  798 417  C 794.64 417  792 414.36  792 411  C 792 407.64  794.64 405  798 405  Z " fill-rule="nonzero" fill="#ffffff" stroke="none" />
  <path d="M 798 405.5  C 801.08 405.5  803.5 407.92  803.5 411  C 803.5 414.08  801.08 416.5  798 416.5  C 794.92 416.5  792.5 414.08  792.5 411  C 792.5 407.92  794.92 405.5  798 405.5  Z " stroke-width="1" stroke="#797979" fill="none" />
  <path d="M 798 414  C 796.32 414  795 412.68  795 411  C 795 409.32  796.32 408  798 408  C 799.68 408  801 409.32  801 411  C 801 412.68  799.68 414  798 414  " fill-rule="nonzero" fill="#797979" stroke="none" />
</svg>