<?xml version="1.0" encoding="utf-8"?>
<svg version="1.1" xmlns:xlink="http://www.w3.org/1999/xlink" width="90px" height="90px" xmlns="http://www.w3.org/2000/svg">
  <g transform="matrix(1 0 0 1 -92 -325 )">
    <path d="M 93 330  A 4 4 0 0 1 97 326 L 177 326  A 4 4 0 0 1 181 330 L 181 410  A 4 4 0 0 1 177 414 L 97 414  A 4 4 0 0 1 93 410 L 93 330  Z " fill-rule="nonzero" fill="#ffffff" stroke="none" />
    <path d="M 92.5 330  A 4.5 4.5 0 0 1 97 325.5 L 177 325.5  A 4.5 4.5 0 0 1 181.5 330 L 181.5 410  A 4.5 4.5 0 0 1 177 414.5 L 97 414.5  A 4.5 4.5 0 0 1 92.5 410 L 92.5 330  Z " stroke-width="1" stroke-dasharray="3,1" stroke="#cccccc" fill="none" stroke-dashoffset="0.5" />
  </g>
</svg>