<?xml version="1.0" encoding="utf-8"?>
<svg version="1.1" xmlns:xlink="http://www.w3.org/1999/xlink" width="129px" height="124px" xmlns="http://www.w3.org/2000/svg">
  <defs>
    <mask fill="white" id="clip44">
      <path d="M 63.69375 0.64750111182743  L 48.5374110537797 11  L 8.0625 11  C 3.5475 10.7826086956522  0 13.1547826086957  0 16.1739130434783  L 0 118.608695652174  C 0 121.627826086957  3.5475 124  8.0625 124  L 120.9375 124  C 125.4525 124  129 121.627826086957  129 118.608695652174  L 129 16.1739130434783  C 129 13.1547826086957  125.4525 10.7826086956522  120.9375 11  L 78.8504111478662 11  L 63.69375 0.64750111182743  Z " fill-rule="evenodd" />
    </mask>
  </defs>
  <g>
    <path d="M 63.69375 0.64750111182743  L 48.5374110537797 11  L 8.0625 11  C 3.5475 10.7826086956522  0 13.1547826086957  0 16.1739130434783  L 0 118.608695652174  C 0 121.627826086957  3.5475 124  8.0625 124  L 120.9375 124  C 125.4525 124  129 121.627826086957  129 118.608695652174  L 129 16.1739130434783  C 129 13.1547826086957  125.4525 10.7826086956522  120.9375 11  L 78.8504111478662 11  L 63.69375 0.64750111182743  Z " fill-rule="nonzero" fill="#ffffff" stroke="none" />
    <path d="M 63.69375 0.64750111182743  L 48.5374110537797 11  L 8.0625 11  C 3.5475 10.7826086956522  0 13.1547826086957  0 16.1739130434783  L 0 118.608695652174  C 0 121.627826086957  3.5475 124  8.0625 124  L 120.9375 124  C 125.4525 124  129 121.627826086957  129 118.608695652174  L 129 16.1739130434783  C 129 13.1547826086957  125.4525 10.7826086956522  120.9375 11  L 78.8504111478662 11  L 63.69375 0.64750111182743  Z " stroke-width="2" stroke="#f2f2f2" fill="none" mask="url(#clip44)" />
  </g>
</svg>