<?xml version="1.0" encoding="utf-8"?>
<svg version="1.1" xmlns:xlink="http://www.w3.org/1999/xlink" width="12px" height="12px" viewBox="208 246  12 12" xmlns="http://www.w3.org/2000/svg">
  <path d="M 214 246  C 217.36 246  220 248.64  220 252  C 220 255.36  217.36 258  214 258  C 210.64 258  208 255.36  208 252  C 208 248.64  210.64 246  214 246  Z " fill-rule="nonzero" fill="#ffffff" stroke="none" />
  <path d="M 214 246.5  C 217.08 246.5  219.5 248.92  219.5 252  C 219.5 255.08  217.08 257.5  214 257.5  C 210.92 257.5  208.5 255.08  208.5 252  C 208.5 248.92  210.92 246.5  214 246.5  Z " stroke-width="1" stroke="#797979" fill="none" />
  <path d="M 214 255  C 212.32 255  211 253.68  211 252  C 211 250.32  212.32 249  214 249  C 215.68 249  217 250.32  217 252  C 217 253.68  215.68 255  214 255  " fill-rule="nonzero" fill="#797979" stroke="none" />
</svg>