<?xml version="1.0" encoding="utf-8"?>
<svg version="1.1" xmlns:xlink="http://www.w3.org/1999/xlink" width="14px" height="7px" xmlns="http://www.w3.org/2000/svg">
  <g transform="matrix(1 0 0 1 -393 -63 )">
    <path d="M 13.6548959988943 0.721649484536073  C 13.747034298482 0.801832760595644  13.7931034482758 0.894043528064131  13.7931034482758 0.998281786941561  C 13.7931034482758 1.10252004581901  13.747034298482 1.19473081328751  13.6548959988943 1.27491408934708  L 7.21442885771546 6.87972508591065  C 7.1222905581277 6.95990836197022  7.01633151360193 7  6.89655172413791 7  C 6.77677193467395 7  6.67081289014811 6.95990836197022  6.57867459056041 6.87972508591065  L 0.138207449381525 1.27491408934708  C 0.0460691497938228 1.19473081328751  0 1.10252004581901  0 0.998281786941561  C 0 0.894043528064131  0.0460691497938228 0.801832760595644  0.138207449381525 0.721649484536073  L 0.829244696289095 0.12027491408935  C 0.921382995876797 0.0400916380297645  1.02734204040269 0  1.14712182986665 0  C 1.26690161933061 0  1.37286066385644 0.0400916380297645  1.46499896344415 0.12027491408935  L 6.89655172413791 4.84707903780068  L 12.3281044848317 0.12027491408935  C 12.4202427844194 0.0400916380297645  12.5262018289453 0  12.6459816184092 0  C 12.7657614078732 0  12.871720452399 0.0400916380297645  12.9638587519867 0.12027491408935  L 13.6548959988943 0.721649484536073  Z " fill-rule="nonzero" fill="#999999" stroke="none" transform="matrix(1 0 0 1 393 63 )" />
  </g>
</svg>