<?xml version="1.0" encoding="utf-8"?>
<svg version="1.1" xmlns:xlink="http://www.w3.org/1999/xlink" width="117px" height="115px" xmlns="http://www.w3.org/2000/svg">
  <defs>
    <mask fill="white" id="clip22">
      <path d="M 57.76875 0.600505063388342  L 44.022303048777 10  L 7.3125 10  C 3.2175 10  0 12.2  0 15  L 0 110  C 0 112.8  3.2175 115  7.3125 115  L 109.6875 115  C 113.7825 115  117 112.8  117 110  L 117 15  C 117 12.2  113.7825 10  109.6875 10  L 71.5154891806228 10  L 57.76875 0.600505063388342  Z " fill-rule="evenodd" />
    </mask>
  </defs>
  <g>
    <path d="M 57.76875 0.600505063388342  L 44.022303048777 10  L 7.3125 10  C 3.2175 10  0 12.2  0 15  L 0 110  C 0 112.8  3.2175 115  7.3125 115  L 109.6875 115  C 113.7825 115  117 112.8  117 110  L 117 15  C 117 12.2  113.7825 10  109.6875 10  L 71.5154891806228 10  L 57.76875 0.600505063388342  Z " fill-rule="nonzero" fill="#ffffff" stroke="none" />
    <path d="M 57.76875 0.600505063388342  L 44.022303048777 10  L 7.3125 10  C 3.2175 10  0 12.2  0 15  L 0 110  C 0 112.8  3.2175 115  7.3125 115  L 109.6875 115  C 113.7825 115  117 112.8  117 110  L 117 15  C 117 12.2  113.7825 10  109.6875 10  L 71.5154891806228 10  L 57.76875 0.600505063388342  Z " stroke-width="2" stroke="#f2f2f2" fill="none" mask="url(#clip22)" />
  </g>
</svg>