<?xml version="1.0" encoding="utf-8"?>
<svg version="1.1" xmlns:xlink="http://www.w3.org/1999/xlink" width="250px" height="27px" xmlns="http://www.w3.org/2000/svg">
  <defs>
    <mask fill="white" id="clip23">
      <path d="M 0 22  L 0 5  C 0 2.19999999999999  2.20000000000005 0  5 0  L 245 0  C 247.8 0  250 2.19999999999999  250 5  L 250 22  C 250 24.8  247.8 27  245 27  L 54.253164556962 27  L 5 27  C 2.20000000000005 27  0 24.8  0 22  Z " fill-rule="evenodd" />
    </mask>
  </defs>
  <g transform="matrix(1 0 0 1 -866 -186 )">
    <path d="M 0 22  L 0 5  C 0 2.19999999999999  2.20000000000005 0  5 0  L 245 0  C 247.8 0  250 2.19999999999999  250 5  L 250 22  C 250 24.8  247.8 27  245 27  L 54.253164556962 27  L 5 27  C 2.20000000000005 27  0 24.8  0 22  Z " fill-rule="nonzero" fill="#f2f2f2" stroke="none" transform="matrix(1 0 0 1 866 186 )" />
    <path d="M 0 22  L 0 5  C 0 2.19999999999999  2.20000000000005 0  5 0  L 245 0  C 247.8 0  250 2.19999999999999  250 5  L 250 22  C 250 24.8  247.8 27  245 27  L 54.253164556962 27  L 5 27  C 2.20000000000005 27  0 24.8  0 22  Z " stroke-width="2" stroke="#cccccc" fill="none" transform="matrix(1 0 0 1 866 186 )" mask="url(#clip23)" />
  </g>
</svg>