<?xml version="1.0" encoding="utf-8"?>
<svg version="1.1" xmlns:xlink="http://www.w3.org/1999/xlink" width="230px" height="124px" xmlns="http://www.w3.org/2000/svg">
  <defs>
    <mask fill="white" id="clip25">
      <path d="M 113.5625 0.64750111182743  L 86.5395700958863 11  L 14.375 11  C 6.325 10.7826086956522  0 13.1547826086957  0 16.1739130434783  L 0 118.608695652174  C 0 121.627826086957  6.325 124  14.375 124  L 215.625 124  C 223.675 124  230 121.627826086957  230 118.608695652174  L 230 16.1739130434783  C 230 13.1547826086957  223.675 10.7826086956522  215.625 11  L 140.586004372165 11  L 113.5625 0.64750111182743  Z " fill-rule="evenodd" />
    </mask>
  </defs>
  <g>
    <path d="M 113.5625 0.64750111182743  L 86.5395700958863 11  L 14.375 11  C 6.325 10.7826086956522  0 13.1547826086957  0 16.1739130434783  L 0 118.608695652174  C 0 121.627826086957  6.325 124  14.375 124  L 215.625 124  C 223.675 124  230 121.627826086957  230 118.608695652174  L 230 16.1739130434783  C 230 13.1547826086957  223.675 10.7826086956522  215.625 11  L 140.586004372165 11  L 113.5625 0.64750111182743  Z " fill-rule="nonzero" fill="#ffffff" stroke="none" />
    <path d="M 113.5625 0.64750111182743  L 86.5395700958863 11  L 14.375 11  C 6.325 10.7826086956522  0 13.1547826086957  0 16.1739130434783  L 0 118.608695652174  C 0 121.627826086957  6.325 124  14.375 124  L 215.625 124  C 223.675 124  230 121.627826086957  230 118.608695652174  L 230 16.1739130434783  C 230 13.1547826086957  223.675 10.7826086956522  215.625 11  L 140.586004372165 11  L 113.5625 0.64750111182743  Z " stroke-width="2" stroke="#f2f2f2" fill="none" mask="url(#clip25)" />
  </g>
</svg>