<?xml version="1.0" encoding="utf-8"?>
<svg version="1.1" xmlns:xlink="http://www.w3.org/1999/xlink" width="12px" height="12px" viewBox="133 306  12 12" xmlns="http://www.w3.org/2000/svg">
  <path d="M 139 306  C 142.36 306  145 308.64  145 312  C 145 315.36  142.36 318  139 318  C 135.64 318  133 315.36  133 312  C 133 308.64  135.64 306  139 306  Z " fill-rule="nonzero" fill="#ffffff" stroke="none" />
  <path d="M 139 306.5  C 142.08 306.5  144.5 308.92  144.5 312  C 144.5 315.08  142.08 317.5  139 317.5  C 135.92 317.5  133.5 315.08  133.5 312  C 133.5 308.92  135.92 306.5  139 306.5  Z " stroke-width="1" stroke="#797979" fill="none" />
  <path d="M 139 315  C 137.32 315  136 313.68  136 312  C 136 310.32  137.32 309  139 309  C 140.68 309  142 310.32  142 312  C 142 313.68  140.68 315  139 315  " fill-rule="nonzero" fill="#797979" stroke="none" />
</svg>