<?xml version="1.0" encoding="utf-8"?>
<svg version="1.1" xmlns:xlink="http://www.w3.org/1999/xlink" width="12px" height="12px" viewBox="216 306  12 12" xmlns="http://www.w3.org/2000/svg">
  <path d="M 222 306  C 225.36 306  228 308.64  228 312  C 228 315.36  225.36 318  222 318  C 218.64 318  216 315.36  216 312  C 216 308.64  218.64 306  222 306  Z " fill-rule="nonzero" fill="#f0f0f0" stroke="none" />
  <path d="M 222 306.5  C 225.08 306.5  227.5 308.92  227.5 312  C 227.5 315.08  225.08 317.5  222 317.5  C 218.92 317.5  216.5 315.08  216.5 312  C 216.5 308.92  218.92 306.5  222 306.5  Z " stroke-width="1" stroke="#797979" fill="none" />
  <path d="M 222 315  C 220.32 315  219 313.68  219 312  C 219 310.32  220.32 309  222 309  C 223.68 309  225 310.32  225 312  C 225 313.68  223.68 315  222 315  " fill-rule="nonzero" fill="#797979" stroke="none" />
</svg>