<?xml version="1.0" encoding="utf-8"?>
<svg version="1.1" xmlns:xlink="http://www.w3.org/1999/xlink" width="10px" height="7px" xmlns="http://www.w3.org/2000/svg">
  <g transform="matrix(1 0 0 1 -507 -49 )">
    <path d="M 9.75349714206739 0.721649484536067  C 9.81931021320144 0.801832760595644  9.85221674876844 0.894043528064131  9.85221674876844 0.998281786941565  C 9.85221674876844 1.10252004581901  9.81931021320144 1.19473081328751  9.75349714206739 1.27491408934707  L 5.15316346979674 6.87972508591065  C 5.08735039866266 6.95990836197022  5.01166536685852 7  4.92610837438422 7  C 4.84055138190996 7  4.76486635010578 6.95990836197022  4.69905327897172 6.87972508591065  L 0.0987196067010895 1.27491408934707  C 0.0329065355670163 1.19473081328751  0 1.10252004581901  0 0.998281786941565  C 0 0.894043528064131  0.0329065355670163 0.801832760595644  0.0987196067010895 0.721649484536067  L 0.592317640206496 0.120274914089347  C 0.65813071134059 0.0400916380297698  0.733815743144756 0  0.819372735619035 0  C 0.904929728093293 0  0.980614759897459 0.0400916380297698  1.04642783103151 0.120274914089347  L 4.92610837438422 4.84707903780068  L 8.80578891773693 0.120274914089347  C 8.871601988871 0.0400916380297698  8.94728702067519 0  9.03284401314945 0  C 9.11840100562372 0  9.19408603742789 0.0400916380297698  9.25989910856194 0.120274914089347  L 9.75349714206739 0.721649484536067  Z " fill-rule="nonzero" fill="#999999" stroke="none" transform="matrix(1 0 0 1 507 49 )" />
  </g>
</svg>