<?xml version="1.0" encoding="utf-8"?>
<svg version="1.1" xmlns:xlink="http://www.w3.org/1999/xlink" width="10px" height="7px" xmlns="http://www.w3.org/2000/svg">
  <g transform="matrix(1 0 0 1 -509 -49 )">
    <path d="M 9.75349714206739 6.27835051546393  C 9.81931021320144 6.19816723940436  9.85221674876844 6.10595647193587  9.85221674876844 6.00171821305844  C 9.85221674876844 5.89747995418099  9.81931021320144 5.80526918671249  9.75349714206739 5.72508591065293  L 5.15316346979674 0.120274914089347  C 5.08735039866266 0.0400916380297822  5.01166536685852 0  4.92610837438422 0  C 4.84055138190996 0  4.76486635010578 0.0400916380297822  4.69905327897172 0.120274914089347  L 0.0987196067010895 5.72508591065293  C 0.0329065355670163 5.80526918671249  0 5.89747995418099  0 6.00171821305844  C 0 6.10595647193587  0.0329065355670163 6.19816723940436  0.0987196067010895 6.27835051546393  L 0.592317640206496 6.87972508591065  C 0.65813071134059 6.95990836197023  0.733815743144756 7  0.819372735619035 7  C 0.904929728093293 7  0.980614759897459 6.95990836197023  1.04642783103151 6.87972508591065  L 4.92610837438422 2.15292096219932  L 8.80578891773693 6.87972508591065  C 8.871601988871 6.95990836197023  8.94728702067519 7  9.03284401314945 7  C 9.11840100562372 7  9.19408603742789 6.95990836197023  9.25989910856194 6.87972508591065  L 9.75349714206739 6.27835051546393  Z " fill-rule="nonzero" fill="#999999" stroke="none" transform="matrix(1 0 0 1 509 49 )" />
  </g>
</svg>