<?xml version="1.0" encoding="utf-8"?>
<svg version="1.1" xmlns:xlink="http://www.w3.org/1999/xlink" width="13px" height="7px" xmlns="http://www.w3.org/2000/svg">
  <g transform="matrix(1 0 0 1 -1094 -95 )">
    <path d="M 12.6795462846876 6.27835051546393  C 12.7651032771619 6.19816723940436  12.807881773399 6.10595647193587  12.807881773399 6.00171821305844  C 12.807881773399 5.89747995418099  12.7651032771619 5.80526918671249  12.6795462846876 5.72508591065292  L 6.69911251073578 0.12027491408935  C 6.61355551826144 0.0400916380297787  6.51516497691607 0  6.40394088669949 0  C 6.29271679648295 0  6.19432625513753 0.0400916380297787  6.10876926266324 0.12027491408935  L 3.84716178240828 2.23983395518333  L 0.128335488711416 5.72508591065292  C 0.0427784962371212 5.80526918671249  0 5.89747995418099  0 6.00171821305844  C 0 6.10595647193587  0.0427784962371212 6.19816723940436  0.128335488711416 6.27835051546393  L 0.770012932268445 6.87972508591065  C 0.855569924742741 6.95990836197024  0.953960466088209 7  1.06518455630475 7  C 1.17640864652128 7  1.2747991878667 6.95990836197024  1.36035618034099 6.87972508591065  L 3.22889279997094 5.12854866810655  L 6.40394088669949 2.15292096219932  L 11.447525593058 6.87972508591065  C 11.5330825855323 6.95990836197024  11.6314731268777 7  11.7426972170943 7  C 11.8539213073109 7  11.9523118486562 6.95990836197024  12.0378688411305 6.87972508591065  L 12.6795462846876 6.27835051546393  Z " fill-rule="nonzero" fill="#999999" stroke="none" transform="matrix(1 0 0 1 1094 95 )" />
  </g>
</svg>