<?xml version="1.0" encoding="utf-8"?>
<svg version="1.1" xmlns:xlink="http://www.w3.org/1999/xlink" width="13px" height="7px" xmlns="http://www.w3.org/2000/svg">
  <g transform="matrix(1 0 0 1 -1094 -95 )">
    <path d="M 12.6795462846876 0.721649484536073  C 12.7651032771619 0.801832760595644  12.807881773399 0.894043528064131  12.807881773399 0.998281786941561  C 12.807881773399 1.10252004581901  12.7651032771619 1.19473081328751  12.6795462846876 1.27491408934708  L 6.69911251073578 6.87972508591065  C 6.61355551826144 6.95990836197022  6.51516497691607 7  6.40394088669949 7  C 6.29271679648295 7  6.19432625513753 6.95990836197022  6.10876926266324 6.87972508591065  L 0.128335488711416 1.27491408934708  C 0.0427784962371212 1.19473081328751  0 1.10252004581901  0 0.998281786941561  C 0 0.894043528064131  0.0427784962371212 0.801832760595644  0.128335488711416 0.721649484536073  L 0.770012932268445 0.12027491408935  C 0.855569924742741 0.0400916380297645  0.953960466088209 0  1.06518455630475 0  C 1.17640864652128 0  1.2747991878667 0.0400916380297645  1.36035618034099 0.12027491408935  L 6.40394088669949 4.84707903780068  L 11.447525593058 0.12027491408935  C 11.5330825855323 0.0400916380297645  11.6314731268777 0  11.7426972170943 0  C 11.8539213073109 0  11.9523118486562 0.0400916380297645  12.0378688411305 0.12027491408935  L 12.6795462846876 0.721649484536073  Z " fill-rule="nonzero" fill="#999999" stroke="none" transform="matrix(1 0 0 1 1094 95 )" />
  </g>
</svg>