<?xml version="1.0" encoding="utf-8"?>
<svg version="1.1" xmlns:xlink="http://www.w3.org/1999/xlink" width="14px" height="8px" xmlns="http://www.w3.org/2000/svg">
  <g transform="matrix(1 0 0 1 -711 -302 )">
    <path d="M 13.6548959988943 7.17525773195878  C 13.747034298482 7.08361970217641  13.7931034482758 6.97823596792671  13.7931034482758 6.85910652920964  C 13.7931034482758 6.73997709049256  13.747034298482 6.63459335624285  13.6548959988943 6.54295532646049  L 7.21442885771543 0.137457044673539  C 7.12229055812773 0.0458190148911797  7.01633151360193 0  6.89655172413791 0  C 6.77677193467395 0  6.67081289014808 0.0458190148911797  6.57867459056041 0.137457044673539  L 0.138207449381525 6.54295532646049  C 0.0460691497938228 6.63459335624285  0 6.73997709049256  0 6.85910652920964  C 0 6.97823596792671  0.0460691497938228 7.08361970217641  0.138207449381525 7.17525773195878  L 0.829244696289095 7.86254295532646  C 0.921382995876826 7.95418098510883  1.02734204040266 8  1.14712182986665 8  C 1.26690161933061 8  1.37286066385644 7.95418098510883  1.46499896344412 7.86254295532646  L 6.89655172413791 2.46048109965636  L 12.3281044848317 7.86254295532646  C 12.4202427844194 7.95418098510883  12.5262018289453 8  12.6459816184092 8  C 12.7657614078732 8  12.871720452399 7.95418098510883  12.9638587519867 7.86254295532646  L 13.6548959988943 7.17525773195878  Z " fill-rule="nonzero" fill="#999999" stroke="none" transform="matrix(1 0 0 1 711 302 )" />
  </g>
</svg>